<mxfile host="65bd71144e">
    <diagram id="G3K9V7yars6c8M6_RZum" name="Page-1">
        <mxGraphModel dx="1047" dy="491" grid="1" gridSize="10" guides="1" tooltips="1" connect="1" arrows="1" fold="1" page="1" pageScale="1" pageWidth="850" pageHeight="1100" math="0" shadow="0">
            <root>
                <mxCell id="0"/>
                <mxCell id="1" parent="0"/>
                <mxCell id="2" value="" style="shape=internalStorage;whiteSpace=wrap;html=1;dx=50;dy=30;rounded=1;arcSize=8;strokeWidth=2;" vertex="1" parent="1">
                    <mxGeometry x="40" y="40" width="280" height="200" as="geometry"/>
                </mxCell>
                <mxCell id="3" value="Users" style="text;html=1;align=center;verticalAlign=middle;resizable=0;points=[];autosize=1;strokeColor=none;fillColor=none;fontColor=#FF0000;" vertex="1" parent="1">
                    <mxGeometry x="100" y="40" width="80" height="30" as="geometry"/>
                </mxCell>
                <mxCell id="4" value="id" style="text;html=1;align=left;verticalAlign=middle;resizable=0;points=[];autosize=1;strokeColor=none;fillColor=none;" vertex="1" parent="1">
                    <mxGeometry x="110" y="80" width="30" height="30" as="geometry"/>
                </mxCell>
                <mxCell id="5" value="first_name" style="text;html=1;align=left;verticalAlign=middle;resizable=0;points=[];autosize=1;strokeColor=none;fillColor=none;" vertex="1" parent="1">
                    <mxGeometry x="110" y="100" width="80" height="30" as="geometry"/>
                </mxCell>
                <mxCell id="6" value="last_name" style="text;html=1;align=left;verticalAlign=middle;resizable=0;points=[];autosize=1;strokeColor=none;fillColor=none;" vertex="1" parent="1">
                    <mxGeometry x="110" y="120" width="80" height="30" as="geometry"/>
                </mxCell>
                <mxCell id="8" value="role" style="text;html=1;align=left;verticalAlign=middle;resizable=0;points=[];autosize=1;fillColor=none;fontColor=#00CC00;" vertex="1" parent="1">
                    <mxGeometry x="110" y="140" width="40" height="30" as="geometry"/>
                </mxCell>
                <mxCell id="10" value="PK" style="text;html=1;align=left;verticalAlign=middle;resizable=0;points=[];autosize=1;strokeColor=none;fillColor=none;" vertex="1" parent="1">
                    <mxGeometry x="50" y="80" width="40" height="30" as="geometry"/>
                </mxCell>
                <mxCell id="11" value="email" style="text;html=1;align=left;verticalAlign=middle;resizable=0;points=[];autosize=1;strokeColor=none;fillColor=none;" vertex="1" parent="1">
                    <mxGeometry x="110" y="160" width="50" height="30" as="geometry"/>
                </mxCell>
                <mxCell id="12" value="pwd" style="text;html=1;align=left;verticalAlign=middle;resizable=0;points=[];autosize=1;strokeColor=none;fillColor=none;" vertex="1" parent="1">
                    <mxGeometry x="110" y="180" width="50" height="30" as="geometry"/>
                </mxCell>
                <mxCell id="13" value="UK" style="text;html=1;align=left;verticalAlign=middle;resizable=0;points=[];autosize=1;strokeColor=none;fillColor=none;" vertex="1" parent="1">
                    <mxGeometry x="50" y="160" width="40" height="30" as="geometry"/>
                </mxCell>
                <mxCell id="14" value="" style="shape=internalStorage;whiteSpace=wrap;html=1;dx=50;dy=30;rounded=1;arcSize=8;strokeWidth=2;" vertex="1" parent="1">
                    <mxGeometry x="480" y="40" width="270" height="110" as="geometry"/>
                </mxCell>
                <mxCell id="15" value="Roles" style="text;html=1;align=center;verticalAlign=middle;resizable=0;points=[];autosize=1;strokeColor=none;fillColor=none;fontColor=#00FF80;" vertex="1" parent="1">
                    <mxGeometry x="540" y="40" width="50" height="30" as="geometry"/>
                </mxCell>
                <mxCell id="16" value="id" style="text;html=1;align=left;verticalAlign=middle;resizable=0;points=[];autosize=1;strokeColor=none;fillColor=none;" vertex="1" parent="1">
                    <mxGeometry x="550" y="80" width="30" height="30" as="geometry"/>
                </mxCell>
                <mxCell id="21" value="PK" style="text;html=1;align=left;verticalAlign=middle;resizable=0;points=[];autosize=1;strokeColor=none;fillColor=none;" vertex="1" parent="1">
                    <mxGeometry x="490" y="80" width="40" height="30" as="geometry"/>
                </mxCell>
                <mxCell id="25" value="role_name" style="text;html=1;align=left;verticalAlign=middle;resizable=0;points=[];autosize=1;strokeColor=none;fillColor=none;" vertex="1" parent="1">
                    <mxGeometry x="550" y="100" width="80" height="30" as="geometry"/>
                </mxCell>
                <mxCell id="26" value="role_notes" style="text;html=1;align=left;verticalAlign=middle;resizable=0;points=[];autosize=1;strokeColor=none;fillColor=none;" vertex="1" parent="1">
                    <mxGeometry x="550" y="120" width="80" height="30" as="geometry"/>
                </mxCell>
                <mxCell id="27" value="" style="endArrow=none;html=1;fontColor=#66FF66;entryX=0;entryY=0.5;entryDx=0;entryDy=0;fillColor=#60a917;strokeColor=#2D7600;strokeWidth=4;" edge="1" parent="1" target="14">
                    <mxGeometry width="50" height="50" relative="1" as="geometry">
                        <mxPoint x="320" y="160" as="sourcePoint"/>
                        <mxPoint x="400" y="90" as="targetPoint"/>
                        <Array as="points">
                            <mxPoint x="400" y="160"/>
                            <mxPoint x="400" y="95"/>
                        </Array>
                    </mxGeometry>
                </mxCell>
                <mxCell id="54" value="" style="shape=internalStorage;whiteSpace=wrap;html=1;dx=50;dy=30;rounded=1;arcSize=8;strokeWidth=2;" vertex="1" parent="1">
                    <mxGeometry x="480" y="200" width="270" height="150" as="geometry"/>
                </mxCell>
                <mxCell id="55" value="Institutes" style="text;html=1;align=center;verticalAlign=middle;resizable=0;points=[];autosize=1;strokeColor=none;fillColor=none;fontColor=#99FFFF;" vertex="1" parent="1">
                    <mxGeometry x="540" y="200" width="70" height="30" as="geometry"/>
                </mxCell>
                <mxCell id="56" value="id" style="text;html=1;align=left;verticalAlign=middle;resizable=0;points=[];autosize=1;strokeColor=none;fillColor=none;" vertex="1" parent="1">
                    <mxGeometry x="550" y="240" width="30" height="30" as="geometry"/>
                </mxCell>
                <mxCell id="57" value="PK" style="text;html=1;align=center;verticalAlign=middle;resizable=0;points=[];autosize=1;strokeColor=none;fillColor=none;" vertex="1" parent="1">
                    <mxGeometry x="480" y="240" width="40" height="30" as="geometry"/>
                </mxCell>
                <mxCell id="58" value="institute_name" style="text;html=1;align=left;verticalAlign=middle;resizable=0;points=[];autosize=1;strokeColor=none;fillColor=none;" vertex="1" parent="1">
                    <mxGeometry x="550" y="260" width="100" height="30" as="geometry"/>
                </mxCell>
                <mxCell id="59" value="address" style="text;html=1;align=left;verticalAlign=middle;resizable=0;points=[];autosize=1;strokeColor=none;fillColor=none;" vertex="1" parent="1">
                    <mxGeometry x="550" y="280" width="70" height="30" as="geometry"/>
                </mxCell>
                <mxCell id="60" value="address" style="text;html=1;align=left;verticalAlign=middle;resizable=0;points=[];autosize=1;strokeColor=none;fillColor=none;" vertex="1" parent="1">
                    <mxGeometry x="550" y="300" width="70" height="30" as="geometry"/>
                </mxCell>
                <mxCell id="61" value="" style="shape=internalStorage;whiteSpace=wrap;html=1;dx=50;dy=30;rounded=1;arcSize=8;strokeWidth=2;fontColor=#FF0000;fillColor=none;" vertex="1" parent="1">
                    <mxGeometry x="40" y="270" width="280" height="200" as="geometry"/>
                </mxCell>
                <mxCell id="62" value="id" style="text;html=1;align=center;verticalAlign=middle;resizable=0;points=[];autosize=1;strokeColor=none;fillColor=none;fontColor=#FFFFFF;" vertex="1" parent="1">
                    <mxGeometry x="110" y="310" width="30" height="30" as="geometry"/>
                </mxCell>
                <mxCell id="63" value="first_name" style="text;html=1;align=center;verticalAlign=middle;resizable=0;points=[];autosize=1;strokeColor=none;fillColor=none;fontColor=#FFFFFF;" vertex="1" parent="1">
                    <mxGeometry x="110" y="330" width="80" height="30" as="geometry"/>
                </mxCell>
                <mxCell id="64" value="last_name" style="text;html=1;align=left;verticalAlign=middle;resizable=0;points=[];autosize=1;strokeColor=none;fillColor=none;fontColor=#FFFFFF;" vertex="1" parent="1">
                    <mxGeometry x="120" y="350" width="80" height="30" as="geometry"/>
                </mxCell>
                <mxCell id="65" value="email" style="text;html=1;align=left;verticalAlign=middle;resizable=0;points=[];autosize=1;strokeColor=none;fillColor=none;fontColor=#FFFFFF;" vertex="1" parent="1">
                    <mxGeometry x="120" y="370" width="50" height="30" as="geometry"/>
                </mxCell>
                <mxCell id="66" value="pwd" style="text;html=1;align=left;verticalAlign=middle;resizable=0;points=[];autosize=1;strokeColor=none;fillColor=none;fontColor=#FFFFFF;" vertex="1" parent="1">
                    <mxGeometry x="120" y="390" width="50" height="30" as="geometry"/>
                </mxCell>
                <mxCell id="67" value="phone" style="text;html=1;align=left;verticalAlign=middle;resizable=0;points=[];autosize=1;strokeColor=none;fillColor=none;fontColor=#FFFFFF;" vertex="1" parent="1">
                    <mxGeometry x="120" y="410" width="60" height="30" as="geometry"/>
                </mxCell>
                <mxCell id="68" value="class_id" style="text;html=1;align=left;verticalAlign=middle;resizable=0;points=[];autosize=1;strokeColor=none;fillColor=none;fontColor=#FFFFFF;" vertex="1" parent="1">
                    <mxGeometry x="120" y="430" width="70" height="30" as="geometry"/>
                </mxCell>
                <mxCell id="69" value="PK" style="text;html=1;align=left;verticalAlign=middle;resizable=0;points=[];autosize=1;strokeColor=none;fillColor=none;" vertex="1" parent="1">
                    <mxGeometry x="50" y="310" width="40" height="30" as="geometry"/>
                </mxCell>
                <mxCell id="70" value="UK" style="text;html=1;align=left;verticalAlign=middle;resizable=0;points=[];autosize=1;strokeColor=none;fillColor=none;" vertex="1" parent="1">
                    <mxGeometry x="50" y="350" width="40" height="30" as="geometry"/>
                </mxCell>
                <mxCell id="71" value="UK" style="text;html=1;align=left;verticalAlign=middle;resizable=0;points=[];autosize=1;strokeColor=none;fillColor=none;" vertex="1" parent="1">
                    <mxGeometry x="50" y="330" width="40" height="30" as="geometry"/>
                </mxCell>
                <mxCell id="72" value="Students" style="text;html=1;align=center;verticalAlign=middle;resizable=0;points=[];autosize=1;strokeColor=none;fillColor=none;fontColor=#FF9933;" vertex="1" parent="1">
                    <mxGeometry x="110" y="270" width="70" height="30" as="geometry"/>
                </mxCell>
                <mxCell id="73" value="institute_id" style="text;html=1;align=left;verticalAlign=middle;resizable=0;points=[];autosize=1;strokeColor=none;fillColor=none;fontColor=#66FFFF;" vertex="1" parent="1">
                    <mxGeometry x="110" y="200" width="80" height="30" as="geometry"/>
                </mxCell>
                <mxCell id="74" value="" style="endArrow=none;html=1;fontColor=#66FF66;entryX=-0.091;entryY=0.667;entryDx=0;entryDy=0;fillColor=#1ba1e2;strokeColor=#006EAF;strokeWidth=4;entryPerimeter=0;" edge="1" parent="1" target="57">
                    <mxGeometry width="50" height="50" relative="1" as="geometry">
                        <mxPoint x="320" y="215" as="sourcePoint"/>
                        <mxPoint x="480" y="150" as="targetPoint"/>
                        <Array as="points">
                            <mxPoint x="400" y="215"/>
                            <mxPoint x="400" y="260"/>
                        </Array>
                    </mxGeometry>
                </mxCell>
                <mxCell id="75" value="" style="shape=internalStorage;whiteSpace=wrap;html=1;dx=50;dy=30;rounded=1;arcSize=8;strokeWidth=2;fontColor=#66FF66;fillColor=none;" vertex="1" parent="1">
                    <mxGeometry x="480" y="400" width="270" height="170" as="geometry"/>
                </mxCell>
                <mxCell id="76" value="Grades" style="text;html=1;align=left;verticalAlign=middle;resizable=0;points=[];autosize=1;strokeColor=none;fillColor=none;fontColor=#FF66B3;" vertex="1" parent="1">
                    <mxGeometry x="560" y="400" width="60" height="30" as="geometry"/>
                </mxCell>
                <mxCell id="77" value="id" style="text;html=1;align=left;verticalAlign=middle;resizable=0;points=[];autosize=1;strokeColor=none;fillColor=none;" vertex="1" parent="1">
                    <mxGeometry x="560" y="440" width="30" height="30" as="geometry"/>
                </mxCell>
                <mxCell id="78" value="student_id" style="text;html=1;align=left;verticalAlign=middle;resizable=0;points=[];autosize=1;strokeColor=none;fillColor=none;fontColor=#FF9933;" vertex="1" parent="1">
                    <mxGeometry x="560" y="460" width="80" height="30" as="geometry"/>
                </mxCell>
                <mxCell id="79" value="class_id" style="text;html=1;align=left;verticalAlign=middle;resizable=0;points=[];autosize=1;strokeColor=none;fillColor=none;fontColor=#9933FF;" vertex="1" parent="1">
                    <mxGeometry x="560" y="480" width="70" height="30" as="geometry"/>
                </mxCell>
                <mxCell id="80" value="subject_id" style="text;html=1;align=left;verticalAlign=middle;resizable=0;points=[];autosize=1;strokeColor=none;fillColor=none;fontColor=#FFFF33;" vertex="1" parent="1">
                    <mxGeometry x="560" y="500" width="80" height="30" as="geometry"/>
                </mxCell>
                <mxCell id="81" value="institute_id" style="text;html=1;align=left;verticalAlign=middle;resizable=0;points=[];autosize=1;strokeColor=none;fillColor=none;fontColor=#66FFFF;" vertex="1" parent="1">
                    <mxGeometry x="560" y="520" width="80" height="30" as="geometry"/>
                </mxCell>
                <mxCell id="82" value="" style="shape=internalStorage;whiteSpace=wrap;html=1;dx=50;dy=30;rounded=1;arcSize=8;strokeWidth=2;fontColor=#66FF66;fillColor=none;" vertex="1" parent="1">
                    <mxGeometry x="40" y="510" width="280" height="120" as="geometry"/>
                </mxCell>
                <mxCell id="83" value="Subjects" style="text;html=1;align=left;verticalAlign=middle;resizable=0;points=[];autosize=1;strokeColor=none;fillColor=none;fontColor=#FFFF00;" vertex="1" parent="1">
                    <mxGeometry x="120" y="510" width="70" height="30" as="geometry"/>
                </mxCell>
                <mxCell id="84" value="id" style="text;html=1;align=left;verticalAlign=middle;resizable=0;points=[];autosize=1;strokeColor=none;fillColor=none;" vertex="1" parent="1">
                    <mxGeometry x="120" y="550" width="30" height="30" as="geometry"/>
                </mxCell>
                <mxCell id="85" value="name" style="text;html=1;align=left;verticalAlign=middle;resizable=0;points=[];autosize=1;strokeColor=none;fillColor=none;" vertex="1" parent="1">
                    <mxGeometry x="120" y="570" width="50" height="30" as="geometry"/>
                </mxCell>
                <mxCell id="86" value="description" style="text;html=1;align=left;verticalAlign=middle;resizable=0;points=[];autosize=1;strokeColor=none;fillColor=none;" vertex="1" parent="1">
                    <mxGeometry x="120" y="590" width="80" height="30" as="geometry"/>
                </mxCell>
                <mxCell id="89" value="PK" style="text;html=1;align=center;verticalAlign=middle;resizable=0;points=[];autosize=1;strokeColor=none;fillColor=none;" vertex="1" parent="1">
                    <mxGeometry x="480" y="440" width="40" height="30" as="geometry"/>
                </mxCell>
                <mxCell id="90" value="PK" style="text;html=1;align=center;verticalAlign=middle;resizable=0;points=[];autosize=1;strokeColor=none;fillColor=none;" vertex="1" parent="1">
                    <mxGeometry x="40" y="550" width="40" height="30" as="geometry"/>
                </mxCell>
                <mxCell id="91" value="" style="shape=internalStorage;whiteSpace=wrap;html=1;dx=50;dy=30;rounded=1;arcSize=8;strokeWidth=2;fontColor=#66FF66;fillColor=none;" vertex="1" parent="1">
                    <mxGeometry x="480" y="590" width="280" height="140" as="geometry"/>
                </mxCell>
                <mxCell id="92" value="Class" style="text;html=1;align=left;verticalAlign=middle;resizable=0;points=[];autosize=1;strokeColor=none;fillColor=none;fontColor=#6666FF;" vertex="1" parent="1">
                    <mxGeometry x="560" y="590" width="50" height="30" as="geometry"/>
                </mxCell>
                <mxCell id="93" value="id" style="text;html=1;align=left;verticalAlign=middle;resizable=0;points=[];autosize=1;strokeColor=none;fillColor=none;" vertex="1" parent="1">
                    <mxGeometry x="560" y="630" width="30" height="30" as="geometry"/>
                </mxCell>
                <mxCell id="94" value="name" style="text;html=1;align=left;verticalAlign=middle;resizable=0;points=[];autosize=1;strokeColor=none;fillColor=none;" vertex="1" parent="1">
                    <mxGeometry x="560" y="650" width="50" height="30" as="geometry"/>
                </mxCell>
                <mxCell id="95" value="teacher_id (ref Users)" style="text;html=1;align=left;verticalAlign=middle;resizable=0;points=[];autosize=1;strokeColor=none;fillColor=none;" vertex="1" parent="1">
                    <mxGeometry x="560" y="670" width="170" height="30" as="geometry"/>
                </mxCell>
                <mxCell id="96" value="PK" style="text;html=1;align=center;verticalAlign=middle;resizable=0;points=[];autosize=1;strokeColor=none;fillColor=none;" vertex="1" parent="1">
                    <mxGeometry x="480" y="630" width="40" height="30" as="geometry"/>
                </mxCell>
                <mxCell id="97" value="institute_id" style="text;html=1;align=left;verticalAlign=middle;resizable=0;points=[];autosize=1;strokeColor=none;fillColor=none;" vertex="1" parent="1">
                    <mxGeometry x="560" y="690" width="80" height="30" as="geometry"/>
                </mxCell>
            </root>
        </mxGraphModel>
    </diagram>
</mxfile>